<?xml version="1.0" encoding="UTF-8" standalone="no"?>
<!-- Created with Inkscape (http://www.inkscape.org/) -->

<svg
   xmlns:dc="http://purl.org/dc/elements/1.1/"
   xmlns:cc="http://creativecommons.org/ns#"
   xmlns:rdf="http://www.w3.org/1999/02/22-rdf-syntax-ns#"
   xmlns:svg="http://www.w3.org/2000/svg"
   xmlns="http://www.w3.org/2000/svg"
   xmlns:xlink="http://www.w3.org/1999/xlink"
   xmlns:sodipodi="http://sodipodi.sourceforge.net/DTD/sodipodi-0.dtd"
   xmlns:inkscape="http://www.inkscape.org/namespaces/inkscape"
   width="260.53088"
   height="122.10236"
   id="svg1901"
   sodipodi:version="0.32"
   inkscape:version="0.48.5 r10040"
   sodipodi:docname="Uusi asiakirja 1"
   version="1.1">
  <defs
     id="defs1903">
    <linearGradient
       inkscape:collect="always"
       xlink:href="#linearGradient3857"
       id="linearGradient4550"
       gradientUnits="userSpaceOnUse"
       x1="-842.09155"
       y1="384.63333"
       x2="246.05408"
       y2="-262.25757" />
    <linearGradient
       id="linearGradient3857">
      <stop
         style="stop-color:#0045d7;stop-opacity:1;"
         offset="0"
         id="stop3859" />
      <stop
         style="stop-color:#56ddaf;stop-opacity:1;"
         offset="1"
         id="stop3861" />
    </linearGradient>
    <linearGradient
       inkscape:collect="always"
       xlink:href="#linearGradient3857"
       id="linearGradient4548"
       gradientUnits="userSpaceOnUse"
       x1="-918.84131"
       y1="740.97156"
       x2="470.82126"
       y2="-470.57837" />
    <linearGradient
       id="linearGradient6415">
      <stop
         style="stop-color:#0045d7;stop-opacity:1;"
         offset="0"
         id="stop6417" />
      <stop
         style="stop-color:#56ddaf;stop-opacity:1;"
         offset="1"
         id="stop6419" />
    </linearGradient>
  </defs>
  <sodipodi:namedview
     id="base"
     pagecolor="#ffffff"
     bordercolor="#666666"
     borderopacity="1.0"
     inkscape:pageopacity="0.0"
     inkscape:pageshadow="2"
     inkscape:zoom="1.4"
     inkscape:cx="179.08813"
     inkscape:cy="4.0944516"
     inkscape:document-units="px"
     inkscape:current-layer="layer1"
     inkscape:window-width="877"
     inkscape:window-height="739"
     inkscape:window-x="177"
     inkscape:window-y="0"
     showgrid="false"
     fit-margin-left="1"
     fit-margin-top="1"
     fit-margin-right="1.1"
     fit-margin-bottom="1"
     inkscape:window-maximized="0" />
  <metadata
     id="metadata1906">
    <rdf:RDF>
      <cc:Work
         rdf:about="">
        <dc:format>image/svg+xml</dc:format>
        <dc:type
           rdf:resource="http://purl.org/dc/dcmitype/StillImage" />
        <dc:title></dc:title>
      </cc:Work>
    </rdf:RDF>
  </metadata>
  <g
     inkscape:label="Taso 1"
     inkscape:groupmode="layer"
     id="layer1"
     transform="translate(-12.641698,-25.596709)">
    <g
       id="g4538"
       transform="matrix(0.6021325,0,0,0.6021325,-1152.425,-676.48687)">
      <g
         style="opacity:0.1;fill:#000000;stroke:none"
         id="g4455"
         transform="matrix(0.91458042,0,0,0.91458042,138.42141,90.40124)">
        <g
           style="fill:#000000;fill-opacity:1;stroke:none"
           transform="matrix(0.13379492,0,0,0.13379492,2078.5731,1252.4282)"
           id="g4457">
          <path
             sodipodi:nodetypes="cssssssssssssssscc"
             inkscape:connector-curvature="0"
             id="path4459"
             d="m -91.32385,1072.6004 c -4.4,-0.1959 -17.9,-1.2907 -30,-2.4329 -197.72679,-18.6642 -379.02605,-109.13652 -512.89213,-255.94442 -96.56056,-105.8958 -162.97186,-237.4831 -191.02657,-378.5 -12.40652,-62.3613 -17.9367,-135.14821 -14.54973,-191.5 5.84396,-97.23067 24.25997,-179.84998 58.9576,-264.5 35.44327,-86.46916 84.0935,-162.93159 149.52183,-235 101.78227,-112.11176 241.48131,-195.13246 390.989,-232.35793 75.25103,-18.73653 161.28677,-27.39757 229.48041,-23.10132 86.47999,5.4483 155.68739,19.22051 230.01959,45.77372 159.3661,56.92928 297.199,164.37295 391.1528,304.91194 65.9144,98.59683 108.5691,209.08781 125.7637,325.77359 6.5367,44.35958 7.4939,59.00736 7.5146,115 0.021,56.0403 -0.9781,71.4396 -7.5239,116 -50.551,344.126 -321.3762,616.01862 -665.4072,668.02992 -39.6438,5.9934 -61.5031,7.5703 -109.5,7.8989 -24.475,0.1676 -48.1,0.1444 -52.5,-0.051 z"
             style="fill:#000000;fill-opacity:1;stroke:none" />
        </g>
      </g>
      <g
         transform="matrix(0.87944212,0,0,0.87944212,238.75619,145.5688)"
         id="g4447">
        <g
           id="g3030"
           transform="matrix(0.13379492,0,0,0.13379492,2053.6994,1234.6613)"
           style="fill:url(#linearGradient4550);fill-opacity:1;stroke:#ffffff;stroke-width:79.3896637">
          <path
             style="fill:url(#linearGradient4548);fill-opacity:1;stroke:#ffffff;stroke-width:59.54224777;stroke-miterlimit:4;stroke-dasharray:none"
             d="m -91.32385,1072.6004 c -4.4,-0.1959 -17.9,-1.2907 -30,-2.4329 -197.72679,-18.6642 -379.02605,-109.13652 -512.89213,-255.94442 -96.56056,-105.8958 -162.97186,-237.4831 -191.02657,-378.5 -12.40652,-62.3613 -17.9367,-135.14821 -14.54973,-191.5 5.84396,-97.23067 24.25997,-179.84998 58.9576,-264.5 35.44327,-86.46916 84.0935,-162.93159 149.52183,-235 101.78227,-112.11176 241.48131,-195.13246 390.989,-232.35793 75.25103,-18.73653 161.28677,-27.39757 229.48041,-23.10132 86.47999,5.4483 155.68739,19.22051 230.01959,45.77372 159.3661,56.92928 297.199,164.37295 391.1528,304.91194 65.9144,98.59683 108.5691,209.08781 125.7637,325.77359 6.5367,44.35958 7.4939,59.00736 7.5146,115 0.021,56.0403 -0.9781,71.4396 -7.5239,116 -50.551,344.126 -321.3762,616.01862 -665.4072,668.02992 -39.6438,5.9934 -61.5031,7.5703 -109.5,7.8989 -24.475,0.1676 -48.1,0.1444 -52.5,-0.051 z"
             id="path3032"
             inkscape:connector-curvature="0"
             sodipodi:nodetypes="cssssssssssssssscc" />
        </g>
        <path
           style="fill:none;stroke:#ffffff;stroke-width:8.82249641;stroke-linecap:butt;stroke-linejoin:miter;stroke-miterlimit:4;stroke-opacity:1;stroke-dasharray:none"
           d="m 2047.1994,1190.6207 c -86.4119,104.9247 -18.5169,129.6179 0,129.6179 18.5168,0 86.4119,-25.9488 0,-129.6179 z"
           id="path3036"
           inkscape:connector-curvature="0"
           sodipodi:nodetypes="csc" />
        <path
           sodipodi:type="arc"
           style="color:#000000;fill:none;stroke:#ffffff;stroke-width:24.57910919;stroke-miterlimit:4;stroke-dasharray:none;marker:none;visibility:visible;display:inline;overflow:visible;enable-background:accumulate"
           id="path3059"
           sodipodi:cx="316.40625"
           sodipodi:cy="545.33093"
           sodipodi:rx="28.90625"
           sodipodi:ry="28.90625"
           d="m 345.3125,545.33093 c 0,15.96448 -12.94177,28.90625 -28.90625,28.90625 -15.96448,0 -28.90625,-12.94177 -28.90625,-28.90625 0,-15.96448 12.94177,-28.90625 28.90625,-28.90625 15.96448,0 28.90625,12.94177 28.90625,28.90625 z"
           transform="matrix(0.37813383,0,0,0.37813383,1925.4348,1142.2314)" />
      </g>
    </g>
    <g
       id="g4552"
       transform="matrix(0.72833802,0,0,0.72833802,-1562.8325,-728.51677)">
      <text
         sodipodi:linespacing="100%"
         id="text3873"
         y="1152.9796"
         x="2346.0337"
         style="font-size:107.70586395px;font-style:normal;font-variant:normal;font-weight:normal;font-stretch:normal;line-height:100%;letter-spacing:0px;word-spacing:0px;fill:#000000;fill-opacity:1;stroke:none;font-family:Calibri;-inkscape-font-specification:Calibri"
         xml:space="preserve"><tspan
           style="font-size:94px;font-style:normal;font-variant:normal;font-weight:bold;font-stretch:normal;letter-spacing:4.86184597px;fill:#ffffff;font-family:Cordia New;-inkscape-font-specification:Cordia New Bold"
           y="1152.9796"
           x="2346.0337"
           id="tspan3875"
           sodipodi:role="line">zYF </tspan></text>
    </g>
  </g>
</svg>
