<?xml version="1.0" encoding="UTF-8" standalone="no"?>
<!DOCTYPE svg PUBLIC "-//W3C//DTD SVG 1.1//EN" "http://www.w3.org/Graphics/SVG/1.1/DTD/svg11.dtd">
<svg width="100%" height="100%" viewBox="0 0 9375 9377" version="1.1" xmlns="http://www.w3.org/2000/svg" xmlns:xlink="http://www.w3.org/1999/xlink" xml:space="preserve" xmlns:serif="http://www.serif.com/" style="fill-rule:evenodd;clip-rule:evenodd;">
    <g transform="matrix(3.125,0,0,3.125,0,0)">
        <g transform="matrix(13.9332,0,0,13.9332,-26912,-16116.8)">
            <g id="g4538">
                <g id="g4455" transform="matrix(0.91458,0,0,0.91458,138.421,90.4012)">
                    <g opacity="0.1">
                        <g id="g4457" transform="matrix(0.133795,0,0,0.133795,2078.57,1252.43)">
                            <path id="path4459" d="M-91.324,1072.6C-95.724,1072.4 -109.224,1071.31 -121.324,1070.17C-319.051,1051.5 -500.35,961.031 -634.216,814.223C-730.777,708.327 -797.188,576.74 -825.243,435.723C-837.649,373.362 -843.179,300.575 -839.792,244.223C-833.948,146.992 -815.532,64.373 -780.835,-20.277C-745.391,-106.746 -696.741,-183.209 -631.313,-255.277C-529.531,-367.389 -389.832,-450.409 -240.324,-487.635C-165.073,-506.371 -79.037,-515.032 -10.843,-510.736C75.637,-505.288 144.844,-491.516 219.176,-464.962C378.542,-408.033 516.375,-300.59 610.329,-160.051C676.243,-61.454 718.898,49.037 736.093,165.723C742.629,210.083 743.587,224.73 743.607,280.723C743.628,336.763 742.629,352.163 736.083,396.723C685.532,740.849 414.707,1012.74 70.676,1064.75C31.032,1070.75 9.173,1072.32 -38.824,1072.65C-63.299,1072.82 -86.924,1072.8 -91.324,1072.6L-91.324,1072.6Z" style="fill-rule:nonzero;"/>
                        </g>
                    </g>
                </g>
                <g id="g4447" transform="matrix(0.879442,0,0,0.879442,238.756,145.569)">
                    <g id="g3030" transform="matrix(0.133795,0,0,0.133795,2053.7,1234.66)">
                        <path id="path3032" d="M-91.324,1072.6C-95.724,1072.4 -109.224,1071.31 -121.324,1070.17C-319.051,1051.5 -500.35,961.031 -634.216,814.223C-730.777,708.327 -797.188,576.74 -825.243,435.723C-837.649,373.362 -843.179,300.575 -839.792,244.223C-833.948,146.992 -815.532,64.373 -780.835,-20.277C-745.391,-106.746 -696.741,-183.209 -631.313,-255.277C-529.531,-367.389 -389.832,-450.409 -240.324,-487.635C-165.073,-506.371 -79.037,-515.032 -10.843,-510.736C75.637,-505.288 144.844,-491.516 219.176,-464.962C378.542,-408.033 516.375,-300.59 610.329,-160.051C676.243,-61.454 718.898,49.037 736.093,165.723C742.629,210.083 743.587,224.73 743.607,280.723C743.628,336.763 742.629,352.163 736.083,396.723C685.532,740.849 414.707,1012.74 70.676,1064.75C31.032,1070.75 9.173,1072.32 -38.824,1072.65C-63.299,1072.82 -86.924,1072.8 -91.324,1072.6L-91.324,1072.6Z" style="fill:url(#_Linear1);fill-rule:nonzero;stroke:white;stroke-width:59.54px;"/>
                    </g>
                    <path id="path3036" d="M2047.2,1190.62C1960.79,1295.55 2028.68,1320.24 2047.2,1320.24C2065.72,1320.24 2133.61,1294.29 2047.2,1190.62Z" style="fill:none;fill-rule:nonzero;stroke:white;stroke-width:8.82px;"/>
                    <g id="path3059" transform="matrix(0.378134,0,0,0.378134,1925.43,1142.23)">
                        <path d="M345.313,545.331C345.313,561.295 332.371,574.237 316.406,574.237C300.442,574.237 287.5,561.295 287.5,545.331C287.5,529.366 300.442,516.425 316.406,516.425C332.371,516.425 345.313,529.366 345.313,545.331Z" style="fill:none;fill-rule:nonzero;stroke:white;stroke-width:24.58px;"/>
                    </g>
                </g>
            </g>
        </g>
    </g>
    <defs>
        <linearGradient id="_Linear1" x1="0" y1="0" x2="1" y2="0" gradientUnits="userSpaceOnUse" gradientTransform="matrix(1389.66,-1211.55,1211.55,1389.66,-918.841,740.972)"><stop offset="0" style="stop-color:rgb(0,69,215);stop-opacity:1"/><stop offset="1" style="stop-color:rgb(86,221,175);stop-opacity:1"/></linearGradient>
    </defs>
</svg>
