<?xml version="1.0" encoding="UTF-8" standalone="no"?>
<!DOCTYPE svg PUBLIC "-//W3C//DTD SVG 1.1//EN" "http://www.w3.org/Graphics/SVG/1.1/DTD/svg11.dtd">
<svg width="100%" height="100%" viewBox="0 0 3124 3059" version="1.1" xmlns="http://www.w3.org/2000/svg" xmlns:xlink="http://www.w3.org/1999/xlink" xml:space="preserve" xmlns:serif="http://www.serif.com/" style="fill-rule:evenodd;clip-rule:evenodd;stroke-linejoin:round;stroke-miterlimit:2;">
    <g transform="matrix(3.125,0,0,3.125,0,0)">
        <g transform="matrix(0.885443,0,0,0.885443,-55.5347,-72.7559)">
            <path d="M983.39,622.34C932.049,570.996 862.339,542.121 789.73,542.121C639.489,542.121 515.86,665.75 515.86,815.991C515.86,966.231 639.489,1089.86 789.73,1089.86C939.967,1089.86 1063.6,966.237 1063.6,816C1063.8,743.353 1034.9,673.569 983.39,622.34ZM789.73,1069.86C649.73,1069.86 535.87,955.97 535.87,815.99C535.87,676.01 649.75,562.12 789.73,562.12C929.71,562.12 1043.6,676 1043.6,816C1043.6,956 929.72,1069.86 789.73,1069.86Z" style="fill:white;fill-rule:nonzero;"/>
        </g>
        <g transform="matrix(0.885443,0,0,0.885443,-55.5347,-72.7559)">
            <path d="M575.84,192.64C572.047,188.847 568.17,185.18 564.21,181.64L561.62,179.36C510.996,135.346 446.124,111.088 379.041,111.088C226.387,111.088 100.771,236.704 100.771,389.358C100.771,463.149 130.123,533.991 182.31,586.16C234.475,638.326 305.302,667.664 379.075,667.664C531.726,667.664 657.339,542.051 657.339,389.4C657.339,315.629 628.003,244.804 575.84,192.64ZM379.08,647.64C236.67,647.64 120.81,531.78 120.81,389.37C120.81,246.96 236.67,131.14 379.08,131.14C521.49,131.14 637.34,247 637.34,389.4C637.34,531.8 521.48,647.67 379.08,647.67L379.08,647.64Z" style="fill:white;fill-rule:nonzero;"/>
        </g>
        <g transform="matrix(0.885443,0,0,0.885443,-55.5347,-72.7559)">
            <path d="M1100.19,546.9L1029.19,620L952.36,548.38L964.08,535.81L966,533.75L1018.66,582.84C1012.14,358.93 828,178.79 602.51,178.79C593.39,178.79 584.21,179.09 575.1,179.67C572.8,179.83 570.51,179.99 568.23,180.19C567.44,180.24 566.65,180.31 565.86,180.38L565.64,177.91L564.99,170.42L564.12,160.42C576.8,159.32 589.71,158.76 602.51,158.76C836.825,158.588 1031.53,347.333 1038.63,581.54L1085.85,533L1100.19,546.9Z" style="fill:white;fill-rule:nonzero;"/>
        </g>
        <g transform="matrix(0.885443,0,0,0.885443,-55.5347,-72.7559)">
            <path d="M598.49,1012.91L598.49,1032.91C381.651,1032.9 196.058,871.28 166.25,656.5L130.25,712.05L113.47,701.18L168.9,615.67L247,678.77L234.43,694.33L209.43,674.13L186.28,655.43C214.61,856.43 383.68,1007.34 587.16,1012.75C590.92,1012.86 594.697,1012.92 598.49,1012.91Z" style="fill:white;fill-rule:nonzero;"/>
        </g>
        <g transform="matrix(3.25565,0,0,3.25565,489.888,478.788)">
            <path d="M96.115,23.507L94.615,20.909L88.113,24.663L77.368,6.052L83.621,2.442L82.121,-0.156L73.27,4.954L75.065,8.062C73.63,8.163 72.337,8.221 71.149,8.221C67.587,8.221 64.752,7.702 60.107,6.615C59.58,6.491 59.041,6.428 58.506,6.428C53.881,6.428 50.788,10.888 49.673,12.806C47.535,16.482 46.852,17.675 46.171,18.865C45.574,19.907 44.979,20.947 43.402,23.661L41.217,22.365L27.128,43.644L17.524,43.644L3.897,54.299L3.9,54.303L3.885,54.303L3.885,66.49L9.413,66.49L9.413,100.156L12.413,100.156L12.413,66.49L69.601,66.49L69.601,100.156L72.601,100.156L72.601,66.49L78.134,66.49L78.134,54.303L78.12,54.303L78.135,54.283L64.446,43.644L62.167,43.644L66.179,37.165L63.037,35.303L63.202,35.237C65.05,34.488 66.752,34.241 68.703,34.421C69.071,34.454 69.446,34.472 69.827,34.472C72.577,34.472 75.21,33.548 77.05,31.937C77.553,31.498 78.008,31.155 78.571,30.793L85.585,26.282L87.017,28.762L96.115,23.507ZM75.134,63.49L6.885,63.49L6.885,57.302L75.134,57.302L75.134,63.49ZM63.417,46.644L73.27,54.303L8.763,54.303L18.557,46.644L25.142,46.644L23.81,48.656L20.751,48.656L20.751,51.656L61.267,51.656L61.267,48.656L59.064,48.656L60.31,46.644L63.417,46.644ZM62.019,38.186L55.619,48.52L27.51,48.501L42.145,26.402L43.921,27.456L46.608,29.287C44.68,30.924 43.92,33.676 44.92,36.144C45.846,38.428 48.042,39.904 50.515,39.904C51.288,39.904 52.045,39.757 52.765,39.465L59.543,36.718L62.019,38.186ZM76.947,28.268C76.254,28.714 75.694,29.135 75.074,29.677C73.773,30.817 71.86,31.47 69.827,31.47C69.538,31.47 69.253,31.456 68.974,31.431C66.509,31.207 64.373,31.524 62.075,32.455L51.638,36.684C50.132,37.292 48.302,36.501 47.7,35.017C47.074,33.472 47.822,31.706 49.366,31.079L53.349,29.463L63.453,24.836C63.849,24.655 64.146,24.311 64.268,23.892C64.389,23.474 64.324,23.024 64.086,22.658L63.802,22.22C62.861,20.761 61.389,19.874 59.66,19.725C59.487,19.709 59.315,19.703 59.146,19.703C57.598,19.703 56.215,20.312 55.147,21.465C54.209,22.476 53.375,23.954 52.705,25.143C52.391,25.7 52.066,26.273 51.842,26.595C51.391,26.865 50.184,27.409 49.515,27.64L45.966,25.221C47.57,22.458 48.171,21.409 48.775,20.358C49.454,19.171 50.135,17.982 52.267,14.316C54.045,11.256 56.378,9.43 58.506,9.43C58.811,9.43 59.118,9.466 59.422,9.536C64.193,10.654 67.316,11.223 71.149,11.223C72.803,11.223 74.64,11.114 76.727,10.944L84.081,23.68L76.947,28.268ZM56.41,24.764C56.72,24.282 57.038,23.838 57.348,23.503C57.841,22.972 58.447,22.702 59.148,22.702C59.231,22.702 59.315,22.705 59.401,22.713C59.743,22.743 60.053,22.828 60.331,22.968L56.41,24.764Z" style="fill:white;fill-rule:nonzero;stroke:white;stroke-width:0.42px;"/>
        </g>
        <g id="g5668" transform="matrix(1.45302,0,0,1.45302,-4978.22,-1575.31)">
            <g id="polygon4636-5-5" transform="matrix(3.32618,0,0,3.32618,3546.18,1147.5)">
                <path d="M21.594,48.593L21.594,-0L0,35.829L21.594,48.593Z" style="fill:none;fill-rule:nonzero;stroke:white;stroke-width:2.3px;stroke-miterlimit:4;"/>
            </g>
            <g id="polygon4638-4-2" transform="matrix(-3.32618,0,0,3.32618,3761.7,1147.5)">
                <path d="M43.194,48.593L43.194,-0L21.6,35.829L43.194,48.593Z" style="fill:none;fill-rule:nonzero;stroke:white;stroke-width:2.3px;stroke-miterlimit:4;"/>
            </g>
            <g id="polygon4640-4-9" transform="matrix(3.32618,0,0,3.32618,3546.18,1150.53)">
                <path d="M21.594,52.681L0,39.924L21.594,70.353L21.594,52.681Z" style="fill:none;fill-rule:nonzero;stroke:white;stroke-width:2.3px;stroke-miterlimit:4;"/>
            </g>
            <g id="polygon4642-4-9" transform="matrix(-3.32618,0,0,3.32618,3761.7,1150.53)">
                <path d="M43.194,52.681L21.6,39.924L43.194,70.353L43.194,52.681Z" style="fill:none;fill-rule:nonzero;stroke:white;stroke-width:2.3px;stroke-miterlimit:4;"/>
            </g>
            <g id="polygon4644-2-8" transform="matrix(3.32618,0,0,3.32618,3546.18,1147.5)">
                <path d="M0,35.829L21.594,48.593L21.594,26.014L0,35.829Z" style="fill:none;fill-rule:nonzero;stroke:white;stroke-width:2.3px;stroke-miterlimit:4;"/>
            </g>
            <g id="polygon4646-5-3" transform="matrix(-3.32618,0,0,3.32618,3761.7,1147.5)">
                <path d="M21.6,35.829L43.194,48.593L43.194,26.014L21.6,35.829Z" style="fill:none;fill-rule:nonzero;stroke:white;stroke-width:2.3px;stroke-miterlimit:4;"/>
            </g>
        </g>
    </g>
</svg>
