<?xml version="1.0" encoding="UTF-8" standalone="no"?>
<!DOCTYPE svg PUBLIC "-//W3C//DTD SVG 1.1//EN" "http://www.w3.org/Graphics/SVG/1.1/DTD/svg11.dtd">
<svg width="100%" height="100%" viewBox="0 0 99 99" version="1.1" xmlns="http://www.w3.org/2000/svg" xmlns:xlink="http://www.w3.org/1999/xlink" xml:space="preserve" xmlns:serif="http://www.serif.com/" style="fill-rule:evenodd;clip-rule:evenodd;stroke-linejoin:round;stroke-miterlimit:2;">
    <g transform="matrix(3.125,0,0,3.125,0,0)">
        <g transform="matrix(0.464331,0,0,0.464331,1.15223,0.754594)">
            <path d="M53,29.793L53,16L59.273,16L46,1.521L42.865,4.94C39.917,2.482 36.129,1 32,1C27.871,1 24.083,2.482 21.135,4.939L18,1.521L4.727,16L11,16L11,29.793L0.727,41L7,41L7,51L9,51L9,39L5.273,39L14,29.479L20.893,37L15,37L15,38C15,42.963 19.037,47 24,47L31,47L31,49.02C25.982,49.224 21,50.954 21,54L21,58C21,61.248 26.667,63 32,63C37.333,63 43,61.248 43,58L43,54C43,50.954 38.018,49.224 33,49.02L33,47L40,47C44.963,47 49,42.963 49,38L49,37L43.107,37L50,29.479L58.727,39L55,39L55,51L57,51L57,41L63.273,41L53,29.793ZM23,58L23,56.958C23.574,57.32 24.253,57.633 25,57.901L25,59.776C23.716,59.213 23,58.551 23,58ZM33,58.98C34.37,58.924 35.736,58.753 37,58.474L37,60.436C35.865,60.716 34.524,60.918 33,60.98L33,58.98ZM31,60.98C29.476,60.918 28.135,60.717 27,60.436L27,58.474C28.264,58.753 29.63,58.924 31,58.98L31,60.98ZM39,59.776L39,57.901C39.747,57.633 40.426,57.32 41,56.958L41,58C41,58.551 40.284,59.213 39,59.776ZM41,54C41,55.224 37.494,57 32,57C26.506,57 23,55.224 23,54C23,52.852 26.084,51.219 31,51.02L31,55L33,55L33,51.02C37.916,51.219 41,52.852 41,54ZM47,18C47,26.271 40.271,33 32,33C23.729,33 17,26.271 17,18C17,9.729 23.729,3 32,3C40.271,3 47,9.729 47,18ZM24,45C20.479,45 17.558,42.388 17.071,39L24,39C27.521,39 30.442,41.612 30.929,45L24,45ZM24,37L23.606,37L14,26.521L13,27.612L13,14L9.273,14L18,4.479L19.683,6.316C16.789,9.366 15,13.474 15,18C15,27.036 22.092,34.427 31,34.949L31,40.355C29.349,38.312 26.826,37 24,37ZM40,45L33.071,45C33.557,41.612 36.479,39 40,39L46.929,39C46.442,42.388 43.521,45 40,45ZM40.394,37L40,37C37.174,37 34.651,38.312 33,40.355L33,34.949C41.908,34.427 49,27.036 49,18C49,13.474 47.211,9.366 44.317,6.316L46,4.479L54.727,14L51,14L51,27.611L50,26.52L40.394,37Z" style="fill:white;fill-rule:nonzero;"/>
        </g>
        <g transform="matrix(1,0,0,1,0.225727,0.496599)">
            <text x="12.649px" y="12.749px" style="font-family:'ArialMT', 'Arial', sans-serif;font-size:12px;fill:white;">$</text>
        </g>
    </g>
</svg>
