<svg width="129" height="133" xmlns="http://www.w3.org/2000/svg">

 <metadata id="metadata1906">image/svg+xml</metadata>
 <g>
  <title>background</title>
  <rect fill="none" id="canvas_background" height="135" width="131" y="-1" x="-1"/>
 </g>
 <g>
  <title>Layer 1</title>
  <g stroke="null" id="layer1">
   <g stroke="null" id="g6257">
    <path stroke="#ffffff" fill="none" stroke-width="3.52333" stroke-miterlimit="4" d="m63.73262,101.90151c-0.23099,-0.00903 -0.93923,-0.06237 -1.57413,-0.1181c-10.37497,-0.90637 -19.88813,-5.30009 -26.91222,-12.4295c-5.06662,-5.14268 -8.55131,-11.5329 -10.02338,-18.38122c-0.65104,-3.02851 -0.94118,-6.56322 -0.76339,-9.2998c0.30654,-4.72184 1.273,-8.73418 3.09346,-12.84493c1.85993,-4.19922 4.41248,-7.91259 7.84565,-11.41234c5.34071,-5.44453 12.67091,-9.47633 20.51576,-11.28407c3.94854,-0.9099 8.46291,-1.3305 12.04106,-1.12188c4.53778,0.26451 8.16913,0.93337 12.06952,2.22292c8.36217,2.76466 15.59438,7.98243 20.52436,14.80753c3.45853,4.78815 5.69674,10.1539 6.5989,15.82059c0.34299,2.15423 0.39327,2.86552 0.39433,5.58471c0,2.72149 -0.05143,3.46938 -0.39486,5.63337c-2.65249,16.71178 -16.86303,29.91576 -34.91473,32.4416c-2.08019,0.29102 -3.22718,0.36775 -5.74569,0.38359c-1.28426,0.00903 -2.52374,0.00903 -2.75464,0l0,-0.00246z" id="path3032-4"/>
    <path stroke="#ffffff" fill="none" stroke-width="3.90194" stroke-miterlimit="4" d="m65.97535,33.8274c-33.88878,38.08416 -7.262,47.04699 0,47.04699c7.26182,0 33.88869,-9.41864 0,-47.04699z" id="path3036-5"/>
    <path stroke="#ffffff" fill="none" stroke-width="24.57911" stroke-miterlimit="4" id="path3059-8" d="m69.43023,91.11035c0,2.19113 -1.91921,3.96739 -4.28667,3.96739c-2.36746,0 -4.28667,-1.77626 -4.28667,-3.96739c0,-2.19113 1.91921,-3.96739 4.28667,-3.96739c2.36746,0 4.28667,1.77626 4.28667,3.96739z"/>
   </g>
  </g>
 </g>
</svg>