<?xml version="1.0" encoding="UTF-8" standalone="no"?>
<!DOCTYPE svg PUBLIC "-//W3C//DTD SVG 1.1//EN" "http://www.w3.org/Graphics/SVG/1.1/DTD/svg11.dtd">
<svg width="100%" height="100%" viewBox="0 0 194 179" version="1.1" xmlns="http://www.w3.org/2000/svg" xmlns:xlink="http://www.w3.org/1999/xlink" xml:space="preserve" xmlns:serif="http://www.serif.com/" style="fill-rule:evenodd;clip-rule:evenodd;stroke-linejoin:round;stroke-miterlimit:2;">
    <g transform="matrix(3.125,0,0,3.125,0,0)">
        <g>
            <g transform="matrix(0.895493,0,0,0.895493,2.50727,-1.78745)">
                <path d="M56,29C60.596,29 63,25.479 63,22L63,21L62,21C58.438,21 56.301,22.115 55,23.451L55,20.647C56.067,20.095 58,18.722 58,16C58,11.517 54.695,9.262 54.555,9.168L54,8.798L53.445,9.168C53.305,9.262 50,11.517 50,16C50,18.722 51.933,20.096 53,20.647L53,23.451C51.699,22.115 49.562,21 46,21L45,21L45,22C45,25.479 47.404,29 52,29L53,29L53,36.71L48.969,38.88C48.824,38.959 48.661,39 48.496,39L43.98,39C44.456,39.632 44.89,40.296 45.262,41L48.496,41C48.991,41 49.483,40.876 49.918,40.642L62.474,33.881L61.526,32.12L55,35.634L55,29L56,29Z" style="fill:white;fill-rule:nonzero;"/>
            </g>
            <g transform="matrix(0.895493,0,0,0.895493,2.50727,-1.78745)">
                <path d="M9,49.277L9,59L13,59L13,45L11.566,45L9,49.277Z" style="fill:white;fill-rule:nonzero;"/>
            </g>
            <g transform="matrix(0.895493,0,0,0.895493,2.50727,-1.78745)">
                <path d="M17.302,45L15,45L15,59L21.836,59C18.871,56.258 17,52.348 17,48C17,46.973 17.105,45.97 17.302,45Z" style="fill:white;fill-rule:nonzero;"/>
            </g>
            <g transform="matrix(0.895493,0,0,0.895493,2.50727,-1.78745)">
                <path d="M7,59L7,52.61L3.166,59L7,59Z" style="fill:white;fill-rule:nonzero;"/>
            </g>
            <g transform="matrix(0.895493,0,0,0.895493,2.50727,-1.78745)">
                <path d="M30,33.149C30.656,33.061 31.32,33 32,33C32.68,33 33.344,33.061 34,33.149L34,11L37.08,11L32,3.744L26.92,11L30,11L30,33.149Z" style="fill:white;fill-rule:nonzero;"/>
            </g>
            <g transform="matrix(0.895493,0,0,0.895493,2.50727,-1.78745)">
                <path d="M47,48C47,52.348 45.129,56.258 42.164,59L49,59L49,45L46.698,45C46.895,45.97 47,46.973 47,48Z" style="fill:white;fill-rule:nonzero;"/>
            </g>
            <g transform="matrix(0.895493,0,0,0.895493,2.50727,-1.78745)">
                <path d="M51,59L55,59L55,42.618L51,44.618L51,59Z" style="fill:white;fill-rule:nonzero;"/>
            </g>
            <g transform="matrix(0.895493,0,0,0.895493,2.50727,-1.78745)">
                <path d="M57,59L61,59L61,39.618L57,41.618L57,59Z" style="fill:white;fill-rule:nonzero;"/>
            </g>
            <g transform="matrix(0.04536,0,0,0.0456161,13.901,23.3093)">
                <path d="M575.84,192.64C572.047,188.847 568.17,185.18 564.21,181.64L561.62,179.36C510.996,135.346 446.124,111.088 379.041,111.088C226.387,111.088 100.771,236.704 100.771,389.358C100.771,463.149 130.123,533.991 182.31,586.16C234.475,638.326 305.302,667.664 379.075,667.664C531.726,667.664 657.339,542.051 657.339,389.4C657.339,315.629 628.003,244.804 575.84,192.64ZM379.08,647.64C236.67,647.64 120.81,531.78 120.81,389.37C120.81,246.96 236.67,131.14 379.08,131.14C521.49,131.14 637.34,247 637.34,389.4C637.34,531.8 521.48,647.67 379.08,647.67L379.08,647.64Z" style="fill:white;fill-rule:nonzero;"/>
            </g>
            <g transform="matrix(0.895493,0,0,0.895493,2.50727,-1.78745)">
                <path d="M10.098,41L18.739,41C19.111,40.296 19.546,39.632 20.021,39L16,39L16,25L19.08,25L14,17.744L8.92,25L12,25L12,39L10.098,39C9.068,39 8.122,39.519 7.567,40.389L1.156,50.463L2.844,51.537L9.254,41.463C9.439,41.173 9.754,41 10.098,41Z" style="fill:white;fill-rule:nonzero;"/>
            </g>
            <g transform="matrix(20.709,0,0,20.709,25.2392,48.2156)">
                <path d="M0.249,0.103L0.249,0.015C0.205,0.01 0.169,-0 0.142,-0.014C0.114,-0.029 0.091,-0.051 0.071,-0.083C0.051,-0.115 0.039,-0.153 0.036,-0.199L0.124,-0.215C0.131,-0.168 0.143,-0.133 0.16,-0.111C0.185,-0.08 0.215,-0.063 0.249,-0.059L0.249,-0.339C0.213,-0.346 0.176,-0.36 0.138,-0.381C0.11,-0.396 0.089,-0.418 0.073,-0.446C0.058,-0.473 0.051,-0.505 0.051,-0.54C0.051,-0.603 0.073,-0.653 0.117,-0.692C0.147,-0.718 0.191,-0.734 0.249,-0.74L0.249,-0.782L0.301,-0.782L0.301,-0.74C0.352,-0.735 0.392,-0.72 0.422,-0.695C0.461,-0.663 0.484,-0.619 0.492,-0.563L0.401,-0.55C0.396,-0.584 0.385,-0.611 0.368,-0.629C0.352,-0.648 0.329,-0.66 0.301,-0.666L0.301,-0.412C0.345,-0.401 0.374,-0.392 0.389,-0.386C0.416,-0.374 0.438,-0.36 0.456,-0.342C0.473,-0.325 0.486,-0.305 0.495,-0.281C0.505,-0.257 0.509,-0.231 0.509,-0.204C0.509,-0.143 0.49,-0.092 0.451,-0.051C0.412,-0.011 0.362,0.011 0.301,0.014L0.301,0.103L0.249,0.103ZM0.249,-0.667C0.215,-0.661 0.188,-0.648 0.168,-0.625C0.149,-0.603 0.139,-0.577 0.139,-0.547C0.139,-0.517 0.147,-0.492 0.164,-0.472C0.181,-0.451 0.209,-0.435 0.249,-0.423L0.249,-0.667ZM0.301,-0.059C0.335,-0.063 0.363,-0.078 0.385,-0.104C0.408,-0.129 0.419,-0.16 0.419,-0.198C0.419,-0.23 0.411,-0.255 0.395,-0.275C0.379,-0.294 0.348,-0.311 0.301,-0.327L0.301,-0.059Z" style="fill:white;fill-rule:nonzero;"/>
            </g>
        </g>
    </g>
</svg>
